<?xml version="1.0" encoding="UTF-8"?>
<svg width="396px" height="360px" viewBox="0 0 396 360" version="1.1" xmlns="http://www.w3.org/2000/svg" xmlns:xlink="http://www.w3.org/1999/xlink">
    <!-- Generator: sketchtool 50.2 (55047) - http://www.bohemiancoding.com/sketch -->
    <title>A6986077-EFC8-4FFB-8D98-3BBAA86C1F48</title>
    <desc>Created with sketchtool.</desc>
    <defs></defs>
    <g id="Tools-and-Resources" stroke="none" stroke-width="1" fill="none" fill-rule="evenodd">
        <g id="FB-Ent-Tools-v1a" transform="translate(-1059.000000, -252.000000)">
            <g id="toolbox" transform="translate(1059.000000, 252.000000)">
                <path d="M387.657425,152.381202 L334.417597,85.8306438 C327.59382,77.3011159 317.261974,72.335279 306.339142,72.335279 L304.946266,72.335279 C294.023433,72.335279 283.691588,77.3011159 276.867811,85.8306438 L223.627983,152.381202 C218.527725,158.756137 215.748155,166.678455 215.748155,174.84412 L215.748155,324.040944 C215.748155,343.899657 231.846953,359.999227 251.706438,359.999227 L359.579742,359.999227 C379.438455,359.999227 395.538026,343.899657 395.538026,324.040944 L395.538026,174.84412 C395.536481,166.678455 392.757682,158.757682 387.657425,152.381202" id="Fill-1" fill="#006AD8"></path>
                <path d="M242.715708,180.210129 L350.589013,180.210129 C365.483433,180.210129 377.558112,192.284034 377.558112,207.178455 C377.558112,222.072103 365.483433,234.146781 350.589013,234.146781 L242.715708,234.146781 C227.821288,234.146781 215.747382,222.072103 215.747382,207.178455 C215.747382,192.283262 227.821288,180.210129 242.715708,180.210129" id="Fill-2" fill="#0059B2"></path>
                <path d="M89.8949356,90.3151931 L305.642318,90.3151931 C315.571674,90.3151931 323.620687,98.364206 323.620687,108.293562 C323.620687,118.222918 315.571674,126.271931 305.642318,126.271931 L89.8949356,126.271931 C79.9655794,126.271931 71.9165665,118.222918 71.9165665,108.293562 C71.915794,98.364206 79.9655794,90.3151931 89.8949356,90.3151931" id="Fill-3" fill="#312F4E"></path>
                <g id="Group-7" transform="translate(74.163090, 0.000000)">
                    <path d="M231.479227,108.293562 L15.7318455,108.293562 C9.41871245,108.364635 3.61854077,111.788498 0.50832618,117.283519 C3.61854077,122.776996 9.41793991,126.202403 15.7318455,126.272704 L231.479227,126.272704 C237.792361,126.202403 243.592532,122.777768 246.702747,117.283519 C243.59176,111.788498 237.792361,108.364635 231.479227,108.293562" id="Fill-4" fill="#24213E"></path>
                    <path d="M321.0497,65.6420601 C320.036137,55.1580258 306.682918,51.0674678 299.235708,58.5146781 L274.883176,82.8672103 C264.95073,92.7934764 248.851159,92.7872961 238.924893,82.8548498 C229.004034,72.9270386 229.004034,56.8375107 238.924893,46.9104721 L263.193991,22.6421459 C271.136395,14.6997425 265.79897,1.44154506 254.597253,0.610300429 C247.02412,0.0610300429 239.411588,0.729270386 232.050129,2.59030043 C203.905236,9.61184549 181.955279,33.8392275 178.181459,62.6006009 C177.032704,71.2290129 177.438283,79.9933906 179.377339,88.4796567 L33.7102146,234.146781 L87.6476395,288.083433 L233.315536,142.415536 C241.798712,144.35382 250.560773,144.759399 259.187639,143.612961 C287.950558,139.841459 312.179485,117.89073 319.202575,89.7450644 C321.194936,81.875279 321.819142,73.7227468 321.0497,65.6420601" id="Fill-6" fill="#A8AACA"></path>
                </g>
                <path d="M393.366438,89.7442918 C393.929614,87.4854077 394.102661,85.2991416 394.441803,83.0796567 C388.103176,83.27897 382.074335,85.8623176 377.558112,90.3151931 L359.57897,108.293562 C349.649614,118.222146 333.551588,118.222146 323.620687,108.293562 C313.692103,98.364206 297.594077,98.3634335 287.664721,108.29279 L161.81073,234.146781 C151.881373,244.075365 151.879828,260.174163 161.809957,270.103519 L161.81073,270.104292 C165.158884,273.450901 169.278798,275.246266 173.557082,276.337082 L307.479399,142.414764 C315.962575,144.353047 324.724635,144.758627 333.351502,143.612189 C362.113648,139.840687 386.342575,117.889957 393.366438,89.7442918" id="Fill-8" fill="#8387B5"></path>
                <path d="M179.789099,180.210129 L215.747382,144.251845 C225.676738,134.322489 241.776309,134.322489 251.705665,144.251845 C261.635021,154.181202 261.635021,170.280773 251.705665,180.210129 L215.747382,216.166867 C205.818026,226.096996 189.718455,226.096996 179.789099,216.166867 C169.859742,206.237511 169.859742,190.139485 179.789099,180.210129" id="Fill-9" fill="#717BAE"></path>
                <polyline id="Fill-10" fill="#CDCDDE" points="53.9366524 36.3777682 71.9165665 18.3993991 107.873305 36.3777682 107.873305 54.3569099 233.726524 180.210129 215.747382 198.188498 89.8949356 72.3360515 71.9165665 72.3360515 53.9366524 36.3777682"></polyline>
                <path d="M206.757425,171.220172 L80.9049785,45.3677253 C75.9414592,40.4034335 67.8932189,40.4026609 62.9281545,45.3661803 C62.927382,45.3669528 62.9266094,45.3677253 62.9266094,45.3677253 C61.8404292,46.4848069 60.9705579,47.7934764 60.3618026,49.2288412 L71.9165665,72.3360515 L89.8949356,72.3360515 L206.758197,189.199313 C211.722489,184.234249 211.722489,176.185236 206.757425,171.220172" id="Fill-11" fill="#A8AACA"></path>
                <path d="M183.513476,194.464893 L230.002918,147.976223 C234.96721,143.011159 243.016223,143.011159 247.981288,147.976223 C252.946352,152.940515 252.946352,160.989528 247.981288,165.954592 L246.439313,167.496567 C239.417768,174.518112 239.417768,185.902146 246.439313,192.922918 C249.810644,196.295021 254.384034,198.188498 259.152103,198.188498 L271.864893,198.188498 C281.980429,198.188498 291.681116,202.20721 298.833991,209.359313 L366.387296,276.912618 C381.280944,291.807039 381.280944,315.955622 366.387296,330.84927 C351.492876,345.743691 327.344292,345.743691 312.449871,330.84927 L244.896567,263.295966 C237.744464,256.143863 233.725751,246.442403 233.725751,236.327639 L233.725751,223.61485 C233.725751,218.846009 231.831502,214.273391 228.460172,210.901288 C221.439399,203.880515 210.055365,203.880515 203.034592,210.901288 L201.491845,212.444034 C196.527554,217.408326 188.477768,217.408326 183.513476,212.444034 C178.546094,207.48206 178.536824,199.437682 183.498026,194.4703 C183.501888,194.46721 183.504979,194.463348 183.513476,194.464893" id="Fill-12" fill="#314388"></path>
                <path d="M206.757425,189.198541 C211.722489,194.163605 219.771502,194.163605 224.736567,189.198541 L247.981288,165.95382 C252.941717,160.984893 252.935536,152.93588 247.968155,147.974678 C243.004635,143.019657 234.965665,143.019657 230.002918,147.974678 L206.757425,171.220172 C201.793906,176.185236 201.793906,184.234249 206.757425,189.198541" id="Fill-13" fill="#344E90"></path>
                <path d="M143.830815,198.188498 L377.558112,198.188498 C387.487468,198.188498 395.536481,206.237511 395.536481,216.166867 L395.536481,324.040944 C395.536481,343.899657 379.43691,359.999227 359.578197,359.999227 L143.830815,359.999227 L143.830815,198.188498" id="Fill-14" fill="#027FFF"></path>
                <g id="Group-18" transform="translate(0.000000, 71.845494)">
                    <path d="M359.57897,252.195451 L224.737339,252.195451 C209.842918,252.195451 197.769013,240.120773 197.769013,225.227124 L197.769013,153.31133 C197.769013,138.417682 185.694335,126.343004 170.799914,126.343004 C155.906266,126.343004 143.831588,138.417682 143.831588,153.31133 L143.831588,270.174592 C143.831588,280.103948 151.881373,288.153734 161.81073,288.153734 L359.57897,288.153734 C369.508326,288.153734 377.558112,280.103948 377.558112,270.174592 C377.558112,260.245236 369.508326,252.195451 359.57897,252.195451" id="Fill-15" fill="#006AD8"></path>
                    <path d="M171.910043,80.5357082 L118.670215,13.9851502 C111.846438,5.45562232 101.515365,0.489785408 90.5917597,0.489785408 L89.1988841,0.489785408 C78.2760515,0.489785408 67.944206,5.45562232 61.1204292,13.9851502 L7.87982833,80.5357082 C2.77879828,86.9121888 0,94.8329614 0,102.998627 L0,252.195451 C0,272.054163 16.0995708,288.153734 35.9582833,288.153734 L143.831588,288.153734 C163.6903,288.153734 179.789871,272.054163 179.789871,252.195451 L179.789871,102.998627 C179.789099,94.8329614 177.0103,86.9121888 171.910043,80.5357082" id="Fill-17" fill="#027FFF"></path>
                </g>
                <path d="M120.853391,93.9684979 C115.888326,93.971588 111.865751,97.9995708 111.868841,102.963863 C111.871159,105.003348 112.565665,106.98103 113.838798,108.573219 L157.870043,163.612275 C160.415536,166.802833 161.804549,170.762833 161.809957,174.84412 L161.809957,187.97176 C161.809957,188.137854 161.81382,188.303176 161.82309,188.46618 C161.81382,188.629957 161.809957,188.795279 161.809957,188.961373 L161.809957,324.041717 C161.798369,333.96721 153.755536,342.00927 143.830815,342.020086 L119.653648,342.020086 C114.689356,342.020086 110.663691,346.045751 110.663691,351.010043 C110.663691,355.975107 114.689356,360 119.653648,360 L143.830815,360 C163.689528,360 179.789099,343.900429 179.789099,324.041717 L179.789099,188.960601 C179.789099,188.794506 179.785236,188.629185 179.775966,188.465408 C179.785236,188.302403 179.789099,188.137082 179.789099,187.970987 L179.789099,174.84412 C179.789099,166.679227 177.0103,158.757682 171.90927,152.381202 L171.42103,151.770901 L171.409442,151.755451 C171.331416,151.657339 171.24412,151.549185 171.148326,151.429442 L171.142918,151.422489 L171.108155,151.379227 L171.0703,151.332103 L171.068755,151.330558 L170.993047,151.236309 L170.987639,151.228584 L170.82927,151.030815 L170.812275,151.009957 C170.786781,150.977511 170.761288,150.946609 170.734249,150.912618 L170.730386,150.907983 L170.645408,150.801373 L170.632275,150.785923 L170.592876,150.736481 L170.589013,150.731073 L127.850987,97.308927 C126.145236,95.1929614 123.571931,93.9638627 120.853391,93.9684979" id="Fill-19" fill="#026DDC"></path>
                <path d="M89.8972532,90.3144206 C99.8266094,90.3144206 107.876395,98.3634335 107.876395,108.29279 C107.876395,118.222146 99.8266094,126.271159 89.8972532,126.271159 C79.967897,126.271159 71.9188841,118.222146 71.9188841,108.29279 C71.9188841,98.3634335 79.967897,90.3144206 89.8972532,90.3144206" id="Fill-20" fill="#0059B2"></path>
                <path d="M26.9683262,180.210129 C31.9333906,180.210129 35.9582833,184.235021 35.9582833,189.199313 L35.9582833,279.095021 C35.9582833,284.059313 31.9333906,288.084206 26.9683262,288.084206 C22.0040343,288.084206 17.9783691,284.059313 17.9783691,279.095021 L17.9783691,189.198541 C17.9783691,184.234249 22.0040343,180.210129 26.9683262,180.210129" id="Fill-21" fill="#006AD8"></path>
                <path d="M26.9683262,306.062575 C31.9333906,306.062575 35.9582833,310.087468 35.9582833,315.05176 L35.9582833,333.030901 C35.9582833,337.995193 31.9333906,342.020086 26.9683262,342.020086 C22.0040343,342.020086 17.9783691,337.995193 17.9783691,333.030901 L17.9783691,315.05176 C17.9783691,310.087468 22.0040343,306.062575 26.9683262,306.062575" id="Fill-22" fill="#006AD8"></path>
                <path d="M215.747382,216.166867 L359.57897,216.166867 C369.508326,216.166867 377.558112,224.216652 377.558112,234.146009 C377.558112,244.075365 369.508326,252.124378 359.57897,252.124378 L215.747382,252.124378 C205.818026,252.124378 197.769013,244.075365 197.769013,234.146009 C197.769013,224.216652 205.818026,216.166867 215.747382,216.166867" id="Fill-23" fill="#006AD8"></path>
                <path d="M295.870558,26.0853219 C270.327554,41.4108155 262.044464,74.5424034 277.369957,100.08618 L277.413219,100.158026 L277.429442,100.184292 L277.457253,100.230644 L277.475021,100.259227 L277.501288,100.303262 L277.518283,100.331073 L277.545322,100.37588 L277.56309,100.405236 L277.589356,100.448498 L277.607124,100.477082 L277.634936,100.521888 L277.680515,100.594506 L277.695193,100.62 L277.725322,100.667124 L277.740773,100.692618 L277.771674,100.74206 L277.784034,100.762918 L277.818026,100.817768 L277.828069,100.833991 L277.865923,100.895021 L277.872103,100.905064 L277.914592,100.973047 L277.91691,100.977682 C278.46927,101.859914 279.043262,102.720515 279.638112,103.560258 L279.644292,103.568755 L279.685236,103.62824 L279.695279,103.641373 L279.732361,103.693906 L279.746266,103.713219 L279.778712,103.759571 L279.797253,103.784292 L279.825837,103.823691 L279.846695,103.853047 L279.871416,103.887811 L279.89691,103.923348 L279.913906,103.945751 L279.947124,103.992876 L279.950987,103.997511 C280.043691,104.124979 280.137167,104.253219 280.230644,104.380687 C282.977768,108.1097 288.1097,109.14103 292.083605,106.763176 C292.327725,106.617167 292.565665,106.458026 292.799742,106.285751 C296.796824,103.341631 297.6497,97.7137339 294.704807,93.7166524 C294.027296,92.795794 293.387639,91.836309 292.786609,90.8358798 C282.59382,73.8038627 288.111245,51.7341631 305.120086,41.5019742 C309.377511,38.9487554 310.758798,33.4266953 308.204807,29.1692704 C305.651588,24.9118455 300.129528,23.5297854 295.872103,26.0837768 C295.872103,26.0845494 295.87133,26.0845494 295.870558,26.0853219" id="Fill-24" fill="#CACCDD"></path>
            </g>
        </g>
    </g>
</svg>